<?xml version="1.0" encoding="utf-8"?>
<!-- Generator: Adobe Illustrator 21.1.0, SVG Export Plug-In . SVG Version: 6.00 Build 0)  -->
<svg version="1.1" id="Layer_1" xmlns="http://www.w3.org/2000/svg" xmlns:xlink="http://www.w3.org/1999/xlink" x="0px" y="0px"
	 viewBox="0 0 198.4 47.3" style="enable-background:new 0 0 198.4 47.3;" xml:space="preserve">
<style type="text/css">
	.st0{fill:#FFFFFF;}
	.st1{fill:#FFD74F;}
	.st2{fill:none;stroke:#231F20;stroke-width:1.1523;}
	.st3{fill:#CD1543;}
	.st4{fill:#231F20;}
</style>
<g>
	<path class="st0" d="M20.5,47.3L20,47.1c-5.4-2.5-9.8-6.1-12.6-10.5C0.6,26.1,0.3,15.3,0.1,3.8c0-0.9,0-1.7-0.1-2.6L0,0h41l0,1.2
		c0,0.9,0,1.8-0.1,2.6c-0.2,11.5-0.5,22.3-7.3,32.8c-2.8,4.4-7.2,8-12.6,10.5L20.5,47.3z"/>
	<polygon points="46.1,16.3 50.4,16.3 54.1,28.6 58.2,16.3 61.6,16.3 65.7,28.6 69.4,16.3 73.6,16.3 67.4,34.6 63.9,34.6 59.9,22.7 
		55.8,34.6 52.3,34.6 	"/>
	<path d="M84.1,27l-2.4-5.9L79.3,27H84.1z M79.9,16.3h3.7l7.8,18.2h-4.2l-1.7-4.1h-7.7l-1.7,4.1h-4.1L79.9,16.3z"/>
	<polygon points="95.7,20.1 90.2,20.1 90.2,16.5 105.2,16.5 105.2,20.1 99.7,20.1 99.7,34.6 95.7,34.6 	"/>
	<polygon points="108.2,16.5 121.8,16.5 121.8,20 112.1,20 112.1,23.7 120.7,23.7 120.7,27.2 112.1,27.2 112.1,31 122,31 122,34.6 
		108.2,34.6 	"/>
	<path d="M134.3,25.3c1.9,0,3.1-1,3.1-2.6v-0.1c0-1.7-1.2-2.6-3.1-2.6h-4v5.2L134.3,25.3L134.3,25.3z M126.2,16.5h8.3
		c2.3,0,4.1,0.6,5.3,1.8c1,1,1.6,2.4,1.6,4.1v0.1c0,2.9-1.6,4.8-3.9,5.6l4.4,6.5h-4.7l-3.9-5.8h-3.1v5.8h-4
		C126.2,34.6,126.2,16.5,126.2,16.5z"/>
	<polygon points="145.7,16.5 149.7,16.5 149.7,30.9 158.2,30.9 158.2,34.6 145.7,34.6 	"/>
	<path d="M173.9,25.6L173.9,25.6c0-3.2-2.3-5.7-5.5-5.7s-5.4,2.5-5.4,5.6v0c0,3.1,2.3,5.7,5.5,5.7C171.7,31.2,173.9,28.7,173.9,25.6
		 M158.8,25.6L158.8,25.6c0-5.2,4.1-9.4,9.6-9.4c5.6,0,9.6,4.2,9.6,9.3v0c0,5.1-4.1,9.4-9.6,9.4S158.8,30.7,158.8,25.6"/>
	<path d="M194.3,25.6L194.3,25.6c0-3.2-2.3-5.7-5.5-5.7c-3.2,0-5.4,2.5-5.4,5.6v0c0,3.1,2.3,5.7,5.5,5.7
		C192,31.2,194.3,28.7,194.3,25.6 M179.2,25.6L179.2,25.6c0-5.2,4.1-9.4,9.6-9.4c5.6,0,9.6,4.2,9.6,9.3v0c0,5.1-4.1,9.4-9.6,9.4
		C183.2,34.9,179.2,30.7,179.2,25.6"/>
	<g>
		<path d="M56.2,7.3V2.5h1.8v4.7c0,1.4,0.7,2.1,1.8,2.1c1.1,0,1.8-0.7,1.8-2V2.5h1.8v4.7c0,2.5-1.4,3.8-3.7,3.8
			C57.6,11,56.2,9.8,56.2,7.3z"/>
		<path d="M68.4,2.5h1.7L74,7.7V2.5h1.8v8.3h-1.6l-4-5.3v5.3h-1.8L68.4,2.5L68.4,2.5z"/>
		<path d="M81,2.5h1.8v8.3H81V2.5z"/>
		<path d="M87.3,2.5h2l2.2,5.9l2.2-5.9h2l-3.4,8.4h-1.6L87.3,2.5z"/>
		<path d="M100.1,2.5h6.3v1.6h-4.5v1.7h3.9v1.6h-3.9v1.8h4.5v1.6h-6.3L100.1,2.5L100.1,2.5z"/>
		<path d="M111.2,2.5h3.8c1.1,0,1.9,0.3,2.4,0.8c0.5,0.5,0.7,1.1,0.7,1.9v0c0,1.3-0.7,2.2-1.8,2.6l2,3h-2.1l-1.8-2.7h-1.4v2.7h-1.8
			C111.2,10.9,111.2,2.5,111.2,2.5z M114.9,6.6c0.9,0,1.4-0.5,1.4-1.2v0c0-0.8-0.5-1.2-1.4-1.2h-1.8v2.4H114.9z"/>
		<path d="M122.4,9.7l1.1-1.3c0.8,0.6,1.5,1,2.5,1c0.8,0,1.2-0.3,1.2-0.8v0c0-0.5-0.3-0.7-1.7-1.1c-1.7-0.4-2.8-0.9-2.8-2.5v0
			c0-1.5,1.2-2.5,2.9-2.5c1.2,0,2.3,0.4,3.1,1.1l-1,1.4c-0.7-0.5-1.5-0.8-2.2-0.8c-0.7,0-1.1,0.3-1.1,0.7v0c0,0.5,0.4,0.7,1.8,1.1
			c1.7,0.4,2.6,1.1,2.6,2.5v0c0,1.7-1.3,2.6-3.1,2.6C124.7,11,123.4,10.6,122.4,9.7z"/>
		<path d="M133.8,2.5h1.8v8.3h-1.8V2.5z"/>
		<path d="M142.8,4.2h-2.5V2.5h6.9v1.7h-2.5v6.7h-1.8V4.2z"/>
		<path d="M154.1,7.6l-3.2-5.1h2.1l2,3.3l2-3.3h2.1l-3.2,5v3.3h-1.8V7.6z"/>
		<path d="M169.6,6.7L169.6,6.7c0-2.4,1.9-4.3,4.4-4.3c2.6,0,4.4,1.9,4.4,4.3v0c0,2.4-1.9,4.3-4.4,4.3C171.4,11,169.6,9.1,169.6,6.7
			z M176.5,6.7L176.5,6.7c0-1.5-1-2.6-2.5-2.6s-2.5,1.2-2.5,2.6v0c0,1.4,1.1,2.6,2.5,2.6C175.5,9.3,176.5,8.2,176.5,6.7z"/>
		<path d="M182.4,2.5h6.4v1.7h-4.5V6h4v1.7h-4v3.2h-1.8V2.5z"/>
	</g>
	<path class="st1" d="M36.3,27.2l-15.9-12L4.8,27.6C1.9,19.3,2,10.7,1.7,1.8h37.5C39,10.5,39.1,19,36.3,27.2z"/>
	<path class="st1" d="M34.2,32.3c-0.6,1.1-1.2,2.2-1.9,3.3c-2.9,4.4-7.1,7.6-11.8,9.8c-4.7-2.2-8.9-5.4-11.8-9.8
		c-0.6-0.9-1.2-1.9-1.7-2.8l13.5-11.3L34.2,32.3z"/>
	<path class="st2" d="M20.5,45.4c-4.7-2.2-8.9-5.4-11.8-9.8c-7-10.7-6.7-22-7-33.8h37.5c-0.3,11.8,0,23.1-7,33.8
		C29.4,40,25.2,43.2,20.5,45.4z"/>
	<path class="st3" d="M9.5,8.2C7.6,7.8,5.9,6.4,6.4,4.6c0,0-0.1-0.5-0.2-0.5c0,0,0-0.1-0.1-0.1C6,4,5.9,4,5.9,3.9c0,0-0.1,0-0.1-0.1
		c0,0.1,0,0.1-0.1,0.2c0,0,0,0.1-0.1,0.1c0,0,0,0-0.1,0.1c-0.1,0.1-0.1,0.4,0,0.5c0,0,0,0.1,0,0.1c-0.1,0,0,0-0.1-0.1c0,0,0,0-0.1,0
		c0,0-0.1,0-0.2-0.1c0,0,0,0,0-0.1C5,4.6,5,4.4,5,4.3c0,0,0-0.1,0-0.2C5,4,4.7,3.9,4.8,4c0,0,0,0-0.2-0.1c-0.1,0-0.2,0-0.3,0
		c0,0,0,0-0.1,0C4.1,4,4,4.1,3.8,4.1c0,0,0,0,0.1,0c0.1,0.1,0,0.2,0.1,0.3S4,4.6,4.1,4.7c0.1,0.1,0.2,0,0.3,0.1c0,0,0.1,0,0,0.2
		C4.2,5.2,3.9,5,3.7,5.5C4,5.4,4,5.9,4.2,5.9C4.8,6,5.3,6.1,5.6,6.7c0.2,0.4-0.4,0.4,0.2,0.5c0.3,0,0.4,0.2,0.6,0.4
		C6.5,7.7,6.5,8,6.6,8.2c0.1,0.1,0.1,0.2,0.3,0.3c0.1,0,0.2,0.1,0.3,0.1c0.1,0,0.1,0.1,0.2,0.1c0.1,0,0.1,0.1,0.2,0.1
		c0.1,0,0.2,0.1,0.2,0.1c0.1,0.1,0,0.2,0.1,0.3c0,0,0.1,0,0.1,0c0,0,0.1,0,0.1,0c0.1,0,0.2,0,0.2,0c0.1,0,0.1,0,0.3,0
		c0,0,0.1,0,0.1,0c0,0,0.1,0,0.1,0C9,9.1,9.1,8.9,9.2,8.7c0.1-0.2,0.1-0.2,0.2-0.4C9.4,8.4,9.6,8.2,9.5,8.2"/>
	<path class="st3" d="M4.8,8.5c0.6,0.3,0.5,1,1,1.3c0.9,0.4,2,0.7,2.9,0.2c-0.2,0.7,0,1.2-0.1,1.3c-0.3,0.2-1.2,0-1.8-0.3
		c-0.4-0.2-0.7,0.4-1.2,0.4c0-0.1,0.1-0.2,0-0.3c-0.1-0.2-0.1-0.3-0.5-0.2c-0.2,0-0.1,0.2-0.5,0.4c-0.1-0.1-0.4-0.2-0.5,0.1
		c0,0.1-0.3-0.4-0.2-0.5c0.2-0.4,0.3-0.5,0.3-0.6c0-0.1-0.5-0.3-0.6-0.2c-0.2,0.3-0.6-0.9,0.7-0.8C4.1,9,4.2,9,4.2,8.7
		c0,0-0.1-0.2-0.2-0.1c0-0.1,0-0.2,0.1-0.2C4.4,8.3,4.6,8.3,4.8,8.5"/>
	<path class="st3" d="M7.4,5.7c0.8,0.2,2-0.9,2.7,0.4C9.6,5.9,8.1,6.7,7.4,5.7"/>
	<path class="st3" d="M14.2,7.5c0,1-1.1,2.2-0.2,3.2c-0.4,0-0.8-0.1-1-0.3c-0.1-0.1-0.1,0.5-0.1,0.6c0,0.1-0.7-0.6-0.9-0.5
		c-0.7,0.5-1,0.7-2.1,0.8c-0.3,0-0.5,0.3-0.5,0.5C9,11.3,9.2,10.2,9.3,9.7c0.4-1.4,1.8-1.8,2.9-2.5c0.8-0.5,1.1-1.4,1.1-2.3
		C13.9,5.6,14.2,6.6,14.2,7.5"/>
	<path class="st3" d="M9,19.3c0.1,0,0,0.1,0,0.2c-0.1,0.1-0.2,0.2-0.3,0.3c-0.1,0.1-0.1,0.2-0.1,0.3c0,0.1,0,0.1,0.1,0.2
		c0,0,0.1,0.1,0.1,0.1c0,0,0.1,0.1,0.1,0.1c0-0.1,0.1-0.2,0.2-0.2c0.7,0.4,0.7-0.4,1.1-0.7c0.2-0.1,0.6,0,0.5,0.4
		c0.4-0.2,0.5-0.8,0.9-1.1c0.7-0.8,1.7-1.3,2.7-1.7c-0.3-0.4-0.8-0.7-1.1-1.1c-0.1-0.2-0.3-0.6,0-0.5c1.2,0.3,1.8-0.4,1.9-1.3
		c1.7,0.2,2.2-1.4,2.4-2.6c0.1-0.6,0.4-0.7,0.1-1.7c-0.1-0.4,0.8-0.6,0.6-1.3c0-0.2-0.3-0.4-0.4-0.4c0.1,0.4-0.5,0.5-0.6,0.7
		C17,9,16.8,9.2,16.8,9.5c-0.6-0.8-0.1-1.7,0.4-2.4c0.8-1.1,2.4-0.5,3,0.2c0-0.3-0.3-0.8-0.5-1c0.6-0.1,1.3,0.3,2.2-0.2
		c0.5-0.3,1-0.5,1.2-1.1c-1,0.1-2.5-0.7-3.4-0.8c-1.8-0.3-2.9,0.9-3.6,2.3C15.5,8,15.9,9,16.6,10.1c0.2,0.3-0.6,0.1-0.9,0.3
		c-0.3,0.2-0.4,0.5-0.4,0.8c0.4-0.4,1.4-0.2,1.5,0.5c0.1,0.9-0.8,2.3-1.7,1.9c-1-0.4-1.5-1.5-1.8-2.6c-0.8,0.7-2.4,0.1-3.1,0.8
		c-0.7,0.7,1.1,1.1,1.7,1.4c0.2,0.1,0.5,0.4,0.5,0.7c-1.1-0.6-2.3,0.1-2.3,1.2c0,0.8,1.1,1.4,1.9,1.4c0.4,0,0.6,0.4,0.1,0.7
		c-0.8,0.5-1.6,1-2.4,0.1c-0.1-0.1-0.6-0.1-0.7,0.2c0,0.1-0.1,0.3,0,0.5C9,18,9,17.9,9.1,17.9c0.1,0,0.2,0.1,0.2,0.2
		c-0.1,0.4-0.6,0.1-0.8,0.5c0,0,0,0,0,0c0,0,0,0,0,0.1c-0.1,0.2-0.3,0.4,0,0.5c0,0,0.1,0.2,0.1,0.2c0-0.2,0.2-0.2,0.2-0.2l0.1,0
		L9,19.3z"/>
	<path class="st3" d="M5.5,15.3c-0.1,0-0.2,0-0.3,0.1c-0.1,0-0.2,0-0.2,0.1c0,0,0,0.1,0,0.1c0,0,0,0.1,0,0.1c-0.1,0-0.3-0.1-0.4-0.2
		c0,0-0.1-0.1-0.1-0.1c0,0,0-0.1,0-0.1c0,0,0-0.1,0-0.1c0-0.1,0-0.2,0-0.3c0,0,0-0.1,0.1-0.1c0,0,0-0.1,0.1-0.1
		c0.1-0.1,0.2-0.1,0.3-0.2c0.1,0,0.3,0,0.4,0c0.1,0,0.2,0,0.4,0.1c0.1,0,0.2-0.2,0.1-0.2c-0.4-0.1-0.4-0.2-0.5-0.6
		c-0.1-0.1-0.1,0-0.2,0c0-0.7,0.8-0.7,1.2-0.5c0.5,0.4,0.1,1.2,0.8,1.4c0.3,0.1,0.7,0.2,1,0.1c0.6-0.3,0-0.9,0.2-1.4
		c0.4-1.1,1.3-1.1,2.3-0.1c-0.9,0.3-1.4,1.6-0.9,2.4c-0.8-0.3-1.9,0.2-2.5,0.6c0.5-0.5-0.2-1-0.4-0.9l-0.2,0.2
		c-0.1,0.1-0.1,0.3-0.3,0.4c-0.1,0.1-0.1,0.1-0.2,0.1c-0.1,0-0.2,0-0.3-0.1c0,0-0.1,0-0.1,0c-0.1,0.1,0,0.1,0,0.2
		c0,0-0.1-0.1-0.1-0.1c-0.1-0.1-0.2-0.1-0.2-0.2c0-0.1-0.1-0.3,0-0.4c0.1-0.1,0.2-0.1,0.2-0.2C5.6,15.4,5.5,15.3,5.5,15.3"/>
	<path class="st3" d="M25.7,6.1c0.1,0.1,0,0.2-0.1,0.2c-0.1,0-0.2,0-0.3,0c-0.4,0.1-0.4,1.1-0.3,1c0.1-0.1,0.4,0,0.5,0
		c0.3,0.1,0.5-0.6,0.7-0.5c0.5,0,0.9,0.6,1.1,1c0,0.1-0.2,0.1-0.2,0.3c0.6-0.1,1.2,0.4,1.7,0.7c0.2-0.4,0.5-0.6,0.7-0.9
		c-1-0.9-2.9-1.2-2.6-3c0-0.2-0.2-0.4-0.3-0.5c-0.1-0.1-0.4-0.1-0.6-0.2c0.2,0.4-0.1,0.4-0.1,1c0,0-0.1,0-0.1,0
		c-0.1-0.1-0.2-0.1-0.3-0.2c-0.1-0.1-0.2,0-0.3,0c-0.1,0-0.1,0-0.2,0.1c-0.1,0.1-0.1,0.2-0.2,0.2c0,0,0,0,0,0.1c0,0-0.1,0.1-0.1,0.1
		c0.1,0,0.2,0,0.2,0c0,0.1,0,0.2,0.1,0.2C25,5.9,25.1,5.9,25.2,6C25.3,6,25.5,6.1,25.7,6.1"/>
	<path class="st3" d="M28.2,5.4c0.6,0,1.2-0.5,1.9,0.3c-0.1-0.1-0.3-0.1-0.3,0C29,6.2,28.1,6,27.6,5.3C27.8,5.2,28,5.4,28.2,5.4"/>
	<path class="st3" d="M30.8,7.6c1-0.5,2-0.9,2.4-2.2c0.1-0.2,0.3,0.4,0.3,0.4c0.5,1.5-0.5,3-0.3,4.6c-0.4-0.2-0.8-0.4-1.1-0.4
		c-1.4,0-1.7,0.8-1.8,0.7c-0.4-0.4-1.5-0.7-1.4-0.6C28.3,9.5,30.1,7.9,30.8,7.6"/>
	<path class="st3" d="M28.1,17.6c0.1,0.2,0-0.1,0.1,0.2c0.7-0.3,1.5-0.6,2.3-0.3c-0.4-1.6,0.8-2,0.9-2.3c0.1-0.4-0.6-1.2-1.2-0.9
		c-0.8,0.3-0.4,1.2-0.6,1.9c-0.1,0.4-0.5,0.6-0.9,0.5c-0.6-0.2-0.9-0.8-1-1.5c-0.1-0.4-1-0.5-1.1-0.1c-0.5,1,0.3-0.1,0.3,0.7
		c0,0.1-0.6,0-0.7,0.5c-0.1,0.3,0.2,0.5,0.6,0.6c0.1,0-0.1-0.2,0-0.2c0.1,0,0.3,0.1,0.3,0.1c-0.4,0.2-0.5,0.7,0.2,1c0,0,0-0.2,0-0.2
		C27.6,17.2,28.1,17.6,28.1,17.6"/>
	<path class="st3" d="M17.2,27.9c0.6,0.3,0.8,0,1.6-0.1c0.1,0,0.6,0.3,0.7,0.4C18.7,28.3,17.7,29,17.2,27.9"/>
	<path class="st3" d="M16.9,28.5c0,0-0.1-0.1-0.1-0.1c0,0-0.1,0-0.2,0c0,0-0.1,0-0.1,0c0,0,0,0.1,0,0.1c-0.1,0.1-0.1,0-0.1,0.1
		c0,0,0,0.1,0,0.1c0,0.1,0,0.1-0.1,0.2c0,0,0,0.1,0,0.2c0,0,0,0.1,0.1,0.1c0,0,0.1,0.1,0.1,0.1c0.1,0.1,0,0,0.2,0.2
		c0.1,0.1,0,0.2-0.1,0.2c-0.5-0.1-0.5-0.7-1-0.8c-0.3-0.1-0.8,0.1-0.8,0.6c0.1,0,0.2,0,0.2,0.1c0.1,0.5,0.8,0.2,0.8,0.5
		c0,0.2-0.5,0-0.7,0.1c-0.3,0.2-0.3,0.7-0.1,1c0.3-0.2,0.6,0.1,0.8-0.1c0.2-0.1,0.2-0.3,0.4-0.4c0.5-0.2,0.7,0.3,0.6,0.7
		c0.3-0.1,1-0.3,1.1-0.3c0.3-0.1,0.3-0.7,0.6-1c-0.5,0-1.1-0.2-1.2-0.7c0-0.1,0-0.1,0-0.2c0-0.2,0-0.4-0.1-0.5c0,0,0,0,0-0.1
		c0,0,0-0.1-0.1-0.1C17.1,28.7,17,28.6,16.9,28.5C16.9,28.6,16.9,28.6,16.9,28.5"/>
	<path class="st3" d="M13.3,31.9c0.2,0.4-0.8-0.2-1.2,0.4c-0.1,0.2-0.1,0.6-0.1,0.9c0.2-0.2,0.5,0.2,0.9-0.2c0.1,0,0.1,0.1,0,0.1
		c-0.2,0.2-0.3,0.4-0.2,0.6c0.1,0.1,0.4,0.4,0.4,0.4c0-0.3,0.5,0,0.6-0.5c0-0.2,0.1-0.6,0.4-0.5c0.3,0.1,0.3,0.4,0.3,0.8
		c0.5-0.2,1.3-0.6,1.8-0.3c0.6,0.5,1.7,0.7,2.5,0.9c-0.5-0.3-0.7-1.3-0.6-1.9c-1.2,0.2-2.5,0.2-3.6-0.3c-0.3-0.1-0.3-0.5-0.4-0.8
		c-0.1-0.3-0.5-0.6-0.9-0.6c-0.2,0-0.7,0.4-0.6,0.5c0,0,0,0.1,0,0.1c0.1-0.1,0.2,0,0.2,0.1c0,0.1,0.1,0.1,0.1,0.2
		C13.1,31.8,13.3,31.8,13.3,31.9"/>
	<path class="st3" d="M16.2,38.5c0.2-0.3,0.4-0.1,0.5-0.1c0.2,0,0.2,0.4,0.2,0.6c1-0.5,1.9-1.1,3-0.9c-0.7-0.7-0.4-2.1,0.5-2.3
		c0,0-0.6-0.1-0.7-0.1c-0.8-0.5-1.8-1-2.3,0.1c-0.3,0.5,0.2,1,0.6,1.4c0.1,0.1,0,0.1-0.1,0.1c-0.9,0.2-2.5,0.4-2.6-1
		c0-0.1-0.3-0.2-0.6-0.2c-0.6,0-0.6,0.8-0.6,0.8c0.1-0.1,0.6-0.1,0.5,0.3c0,0.3-0.7-0.2-0.9,0.1c-0.2,0.3-0.2,0.7-0.1,1
		c0-0.1,0.1-0.2,0.2-0.2c0.7-0.1,0.7,0.1,0.5,0.8c0,0,0.2,0.5,0.3,0.5c0,0,0-0.1,0-0.1c0,0,0.1-0.1,0.1-0.1c0.1,0,0.1,0,0.2,0
		c0,0,0.1,0,0.1-0.1c0.1,0,0.1-0.1,0.1-0.1c0.2-0.2,0.3-0.5,0.6-0.5C16,38.3,16.1,38.4,16.2,38.5"/>
	<path class="st3" d="M23.1,41.5c0.6-0.6,1.1-1.4,1.7-2c-0.7-0.4-1.6-0.9-1.7-1.8c0-0.1,0.1-0.1,0.1-0.1c1,0.6,2.4,0.6,3.1-0.4
		c0.6-0.8,0.8-2.2,2-2.2c-0.4-0.7,0-1.6,0.7-2c-0.2-0.1-0.5-0.3-0.7-0.2c-0.3,0-0.4,0.4-0.7,0.5c0.5-1.7-0.5-4.2-2.4-4.1
		c-0.4,0-0.8,0.3-0.9,0.7c-0.1,0.4-0.2,0.8,0.1,1.1c0.6,0.7,1.1,1.6,0.9,2.6c0.4-0.4,0.9-1,0.8-1.6c0-0.2,0.3,0,0.3-0.1
		c0.5-0.8-0.3-1.2-0.8-1.7c-0.1-0.1,0.2-0.3,0.2-0.3c1.6,0.5,1.8,2.5,1.1,3.8c-0.2-0.2-0.9-0.2-1.1-0.2c0.8,0.4,0.6,0.4,0.5,0.6
		c-0.1,0.2-0.7,0.1-0.9,0.3c-0.2,0.3-0.4,0.4-0.4,1.4c0.3-0.3,0.7-0.9,1.2-0.6c1,0.5,0,2.2-1,2.4c-0.8,0.2-1.5,0-2-0.7
		c-0.7-1-0.2-2.2-0.7-3.2c-0.4,0.1-0.3,0.6-0.5,0.5c-0.8-0.4-1.2-1.2-1.7-1.8c-0.2,0.1-0.3,0.3-0.5,0.3c-0.3,0-0.9-0.1-1.1,0
		c-0.1,0.2-0.3,1.6,1.1,2.1c0.9,0.3,1.6,0.6,2.2,1.4c-0.4,0-0.5-0.2-0.8-0.2c-0.3,0-0.5,0.1-0.7,0.2c-0.2,0.1-0.5,0.6-0.4,0.9
		c0.2,1.7,2.2,1.7,3.1,2.7c0.2,0.2-0.2,0.9-0.6,1.2c-0.3,0.3-1.1-0.4-0.9-0.9c0.1-0.4-0.9-0.7-1.3-0.2c0.1,0,0.2,0.1,0.2,0.1
		c-0.1,0.4,0.4,0.4,0.4,0.6c0,0.3-0.3-0.1-0.4-0.2c-0.4-0.1-0.8,0.1-1.1,0.4c-0.1,0.1-0.2,0.3-0.2,0.4c0.3-0.2,0.5,0.3,0.8,0.2
		c0.2-0.1,0.3-0.3,0.5-0.2c0.1,0,0.2,0.1,0.1,0.2c-0.6,0.4-1,0.9-0.6,1.5c0-0.1,0.1-0.2,0.2-0.3c0.2,0,0.4,0.1,0.6,0
		c0.3-0.1,0.1-0.4,0.2-0.5c0.2-0.3,0.7-0.8,1-0.4c0.1,0.1,0,0.3-0.2,0.3c0.2,0,0.3,0.2,0.5,0.1c0,0,0.1,0,0.1,0c0,0,0.1,0,0.1,0
		c0.1-0.1,0.1-0.1,0.2-0.2c0.1,0,0.3,0,0.4-0.1C23,41.6,23.1,41.5,23.1,41.5"/>
	<path class="st3" d="M20.3,29.4c1.1-0.3,2.3-0.9,2.5-2.1c0.3,0.2,0.4,0.6,0.4,0.9c0,1.5-0.6,2.8-0.3,4.3c0,0.2,0.4,0.7,0.2,0.7
		c-0.2-0.1-0.6-0.4-0.8-0.3c-0.3,0.2-0.2,0.5-0.4,0.5c-0.5-0.3-1-0.7-1.2-1.3c-0.1-0.2-0.1-0.6-0.1-0.6c-0.4,0.4-1.1,0.5-1.6,0.6
		c0.1-0.1,0.2-0.6,0.2-0.6c-0.4-0.2-1,0.5-1,0.4c0-0.2,0-0.3,0.1-0.4C18.7,30.7,19.3,29.7,20.3,29.4"/>
	<path class="st3" d="M12.4,4c0.3,0,0.5-0.2,0.7-0.4c0,0.2,0.2,0.4,0.1,0.5c-0.1,0.2-0.4,0.3-0.4,0.5c-0.1,0.4,0.2,0.8,0,1.2
		C12,7,10.5,6.7,9.5,6.9c0.1-0.1,0-0.3-0.1-0.4c0.5,0.1,1.1,0,1.2-0.4c0.1-0.4,0.2-0.7,0-1.1c-0.3-0.6-1-0.3-1.5-0.1
		C9,4.6,9.3,4.4,9.5,4.3c0.5-0.1,1-0.4,1.5-0.6C11.5,3.6,11.9,4,12.4,4 M11.6,4.6C11.6,4.5,11.7,4.5,11.6,4.6
		c-0.3-0.6-0.8-0.5-1-0.1C10.5,4.8,11.3,4.7,11.6,4.6"/>
	<path class="st3" d="M32.2,6.2c-0.1,0.1-0.4,0.1-0.6,0.2c-0.1,0.1-0.2,0.1-0.3,0.2c0,0-0.2,0.1-0.2,0.1c-0.2,0-0.1,0-0.3,0
		c-0.1,0-0.1,0-0.2,0c-0.1,0-0.3,0-0.4,0c-0.2,0-0.2,0-0.4,0c-0.1,0-0.2,0-0.3-0.1c-0.1,0-0.1,0-0.2,0c0-0.1,0-0.2,0.1-0.2
		c0.1-0.1,0.1,0,0.2,0c0,0,0.2,0,0.2,0c0,0,0.1,0,0.1,0c0,0,0.1,0,0.1,0c0.1,0,0.1,0,0.2-0.1c0,0,0,0,0.1-0.1c0,0,0.1-0.1,0.1-0.1
		c0.1-0.1,0.2-0.3,0.2-0.4c0-0.1,0-0.3,0-0.4c0,0,0,0,0-0.1c0-0.1-0.1-0.2-0.1-0.3c-0.3-0.6-1,0-1.5,0c0-0.1,0-0.3,0-0.4
		c0.4-0.5,0.9-0.2,1.2-0.4c0.9-0.7,1.2-0.2,2.2,0.1c0.3,0.1,0.7-0.1,1-0.2c0.1,0,0.1,0.4,0,0.5c-0.1,0.3-0.4,0.3-0.6,0.6
		C32.6,5.5,32.6,6,32.2,6.2 M31.5,4.4C31.6,4.3,31.5,4.4,31.5,4.4c-0.4-0.2-1-0.5-1.2,0.1C30.2,4.9,31.2,4.6,31.5,4.4"/>
	<path class="st3" d="M21.7,26.4c0.4,0.1,0.9,0.1,1.2-0.3c0.1,0.6-0.4,0.7-0.5,1c-0.2,0.4-0.1,0.9-0.6,1.1c-0.8,0.5-1.9,1-2.9,1.1
		c0-0.1-0.1-0.3,0.1-0.3c0.3,0,0.6-0.3,0.7-0.5c0.1-0.3,0-1-0.3-1.1c-0.3-0.2-0.6,0.1-0.8,0.2c-0.1-0.3,0.4-0.8,1.1-0.8
		c0,0,0.4-0.4,0.3-0.4C20.5,26.1,21,26.2,21.7,26.4 M20.4,27.2c0.2,0.1,0.7-0.2,0.9-0.3c0,0,0.1-0.1,0.1-0.1c0,0,0,0,0,0
		c-0.1,0-0.3,0-0.4-0.1c-0.1,0-0.2-0.1-0.3-0.1c0,0-0.1,0-0.1,0c0,0-0.1,0-0.1,0.1c-0.1,0-0.1,0-0.2,0.1c0,0-0.1,0.1-0.1,0.1
		c0,0.1,0,0.2,0,0.2C20.3,27.1,20.3,27.1,20.4,27.2"/>
	<path class="st3" d="M34.9,22.3c0-0.1,0.3-0.6,0.4-0.9c0-1.1,0.7-1.6,0.7-2.7c0-0.3-1.2-0.6-1.3-1.2c0-0.3-0.1-0.8,0.2-0.8
		c0.4,0,0.8-0.1,1.1-0.3c1.3-1.1,0.2-2.7,0-4.1c0-0.3,0.5-0.9,0.5-1.2c-0.1-1.2-0.3-2.2,0.1-3.4c-0.3,0.3-0.4,0.8-0.7,1
		c-0.1,0.1-0.2-0.1-0.2-0.2c0.2-1,0.6-1.9,1-2.8c0.6-1.1,0.3-2.1-0.7-2.4c-0.9-0.3-1.8,0.6-1.9,1.5c-0.1,0.8,0.2,1.8,0.4,2.5
		c0.1,0.2,0,0.4,0.1,0.6c0.2-0.7,0.2-1.4,0.2-2.1c0-0.2,0.1-0.4,0.3-0.5c0.6-0.2,0.9,0.3,0.9,0.6c-0.1,1.1-0.4,1.9-0.6,3
		c-0.3,1.2,0.1,2.4,0.3,3.6c-0.5-0.3-1-0.3-1.2,0.4c-0.1,0.4,0.2,0.8,0.4,1.1c0-0.5,0.4-1.1,0.9-0.8c0.5,0.3,0.5,2,0.4,2.2
		c-0.3,0.5-0.7,0.8-1.3,0.7c-0.3-0.1-0.2-0.6-0.4-0.8c-1-1.1-1.5-2.4-1.6-3.9c0-0.2,0.1-0.8,0.1-0.8c-1.4-0.6-2,0-2.6,0.8
		c-0.1-0.2-0.6-0.6-0.7-0.5c-0.3,0.5-0.2,1.3,0.2,1.7c1,0.9,2.1,1.5,2.7,2.8c-0.6,0.1-1.2,0.3-1.5,0.9c-0.3,0.7-0.2,1.6,0.6,1.9
		c0.6,0.2,1.6,0,1.8,0c0.6,0.1,1.3,0.6,1.2,1.2c0,0-0.3,1.4-0.9,1.1c-0.3-0.2-0.1-0.9-0.6-1.1c-0.7-0.2-0.8,0.8-0.7,0.7
		c0.2-0.2,0.4,0.1,0.8,0.4c-1.4-0.3-1,1-0.9,0.8c0.1-0.2,0.3,0,0.8,0c0,0-0.1,0.1-0.1,0.1c-0.1,0.1-0.1,0.2-0.2,0.3
		c0,0.1,0,0.1,0,0.2c0,0.1,0,0.1,0.1,0.2c0,0,0,0,0,0c0,0,0,0,0,0c0,0,0-0.1,0.1-0.1c0,0,0.1,0,0.1,0c0,0,0.1,0,0.1,0
		c0,0,0.1,0,0.1,0c0.1,0,0.1,0,0.2,0c0.1,0,0.1,0,0.2-0.1c-0.1,0.1,0.1-0.1,0.1-0.1c0.1-0.2,0.1-0.1,0.2-0.2
		c0.1-0.3,0.3-0.3,0.6-0.3c0,0,0.1,0.1,0.1,0.1c0,0,0.1,0.2,0.1,0.1C34.8,22.1,34.9,22.1,34.9,22.3"/>
	<path class="st3" d="M24.9,9.4c-0.1-0.1-0.1-0.2-0.2-0.2c0,0,0,0,0-0.1c0,0,0-0.1-0.1-0.1c-0.1-0.2,0-0.4,0.2-0.6c0,0,0,0,0,0
		c0,0,0,0,0,0c0,0,0,0,0,0c0,0,0,0,0,0c0,0,0-0.1,0-0.2c0.1,0,0.1,0,0.2,0c0,0,0,0,0.1,0c0.2,0,0.5,0.1,0.6,0.4l0.1,0.1
		c0.2,0.5,0.2,1.9,1.4,2.2c0.7,0.2,1.3,0.4,2,0.4c-0.2,0.7-0.2,1.5,0.4,2c-0.8-0.4-1.3-0.3-1.9-1c-0.3-0.3-1-0.7-1.3-0.6
		c-0.1,0,0.2-0.4-0.1-0.5c-0.2-0.1-0.7,0-0.8,0.1c-0.4,0.7-0.9,0.7-1.1,0.8c0.2-0.2-0.7-0.9,0.4-1.3c0.1,0,0.1-0.3,0-0.3
		c-0.2-0.1-0.4,0-0.6,0.2c-0.2,0.1-0.3-0.4-0.7-0.2c-0.1-1.2,0.9-1.3,1.6-0.5c0,0.1,0.2,0,0.1-0.1L24.9,9.4z"/>
	<polygon class="st4" points="4.6,26.7 20.5,14.1 36.5,26.4 35.8,28.4 20.5,16.7 5.3,28.8 	"/>
	<polygon class="st4" points="6.6,32 20.5,20.6 34.5,31.4 33.5,33.3 20.5,23.3 7.6,33.8 	"/>
</g>
</svg>
